<?xml version="1.0" encoding="UTF-8"?>
<svg id="Layer_2" data-name="Layer 2" xmlns="http://www.w3.org/2000/svg" viewBox="0 0 88.92 104.29">
  <defs>
    <style>
      .cls-1 {
        stroke: currentColor;
        stroke-miterlimit: 10;
        stroke-width: .75px;
      }

      .cls-1, .cls-2 {
        fill: currentColor;
      }
    </style>
  </defs>
  <g id="Layer_1-2" data-name="Layer 1">
    <g>
      <path class="cls-1" d="M39.24,103.92c-3.74,0-7.48-.57-11.14-1.77C5.52,94.76-5.5,66.32,3.53,38.75,12.55,11.18,38.25-5.24,60.82,2.14c22.57,7.39,33.59,35.83,24.57,63.4-7.56,23.1-26.83,38.37-46.16,38.37ZM49.67,1.37C30.77,1.37,11.9,16.38,4.48,39.06c-8.85,27.05,1.88,54.92,23.93,62.14,22.04,7.21,47.18-8.92,56.04-35.97,8.85-27.05-1.88-54.92-23.93-62.14-3.56-1.16-7.2-1.72-10.84-1.72Z"/>
      <path class="cls-2" d="M79.19,37.65c-.5.46-.99.6-1.4.68.33-1.6.04-4.24-1.51-5.17-.81-.49-1.74-.68-2.69-.69-1.75-.01-3.49.47-5.05,1.09-2.42.98-4.74,2.46-6.91,4.03-1.15.84-2.26,1.72-3.32,2.61-.66.56-2.97,2.65-3.45,3.11-1.83,1.76-3.52,3.64-5.13,5.39-1.53,1.67-2.99,3.39-4.34,5.11-.41.52-.81,1.05-1.21,1.59-2.53,3.42-4.95,6.91-7.45,10.34-1.45,1.99-2.87,4.03-4.39,5.97-.16.21-1.02,1.3-1.24,1.33-.13.02-1.13-1.41-.54-2.28.6-.93,3.91-5.64,3.91-5.64,1.46-2.12,3.45-5.24,6-9.73,3.03-5.32,7.61-16.48,3.44-20.85-1.53-1.6-3.67-2.25-5.81-2.56-.83-.08-1.66-.16-2.49-.17-2.72-.02-5.16.55-6.81,1.11,0,0-2.16.83-2.16.83-3.13,1.31-6.02,3.19-8.39,5.59-4.34,4.36-8.22,11.22-6.11,17.39.92,2.66,3.34,4.6,6.27,5.06,0,0,0,0,.01,0,.14.04.23.16.23.3,0,.11-.06.21-.15.26-.05.03-.1.05-.16.05h-.02s-.05,0-.07-.01c-3.12-.51-5.71-2.59-6.69-5.45-2.21-6.45,1.78-13.54,6.25-18.04,2.4-2.41,5.31-4.33,8.48-5.67.34-.14,1.7-.66,2.13-.81,1.7-.56,4.3-1.21,7.2-1.18.87,0,1.74.04,2.6.14,4.43.52,8.51,2.77,9.57,7.28.37,1.59.33,3.54-.21,5.92-.55,2.41-1.63,5.64-3.3,8.83-.62,1.17-1.26,2.34-1.91,3.48,3.35-4.55,7.38-9.46,12.1-13.94.5-.48,3.03-2.76,3.34-3.03,1.11-.96,2.25-1.89,3.41-2.75,2.19-1.62,4.47-3.06,6.92-4.08,1.81-.75,3.71-1.23,5.6-1.26.87-.01,1.75.06,2.61.25,2.29.49,3.02,2.19,3.08,2.36.36.98.59,2.44-.26,3.22Z"/>
    </g>
  </g>
</svg>