<?xml version="1.0" encoding="UTF-8"?>
<svg id="Layer_2" data-name="Layer 2" xmlns="http://www.w3.org/2000/svg" viewBox="0 0 128.79 167">
  <defs>
    <style>
      .cls-1 {
        fill: currentColor;
      }
    </style>
  </defs>
  <g id="Layer_1-2" data-name="Layer 1">
    <g>
      <path class="cls-1" d="M14.68,89.99s0,0,.01,0"/>
      <path class="cls-1" d="M61.06,71.57c-.38.35-.75.46-1.07.52.25-1.22.03-3.24-1.15-3.94-.62-.37-1.32-.52-2.06-.53-1.34-.01-2.67.36-3.86.84-1.85.75-3.62,1.88-5.27,3.07-.88.64-1.73,1.31-2.53,1.99-.51.42-2.27,2.02-2.63,2.37-1.4,1.35-2.69,2.77-3.92,4.12-1.16,1.27-2.28,2.59-3.31,3.9-.31.4-.62.8-.92,1.21-1.93,2.61-3.78,5.27-5.68,7.89-1.11,1.52-2.19,3.07-3.35,4.55-.12.16-.77.99-.94,1.02-.1.02-.86-1.08-.41-1.74.46-.71,2.98-4.3,2.98-4.31,1.11-1.62,2.63-4,4.58-7.42,2.31-4.06,5.81-12.57,2.63-15.91-1.17-1.22-2.8-1.71-4.43-1.96-.63-.06-1.26-.12-1.9-.13-2.07-.02-3.93.42-5.2.85,0,0-1.65.64-1.65.64-2.39,1-4.59,2.43-6.41,4.26-3.31,3.33-6.27,8.56-4.66,13.27.7,2.03,2.55,3.51,4.78,3.86,0,0,0,0,.01,0,.1.03.18.12.18.23,0,.08-.05.16-.11.2-.04.02-.08.04-.12.04h-.01s-.04,0-.05-.01c-2.38-.39-4.36-1.97-5.1-4.16-1.69-4.92,1.36-10.34,4.77-13.77,1.84-1.84,4.05-3.3,6.47-4.32.26-.11,1.3-.51,1.63-.62,1.3-.43,3.28-.92,5.5-.9.66,0,1.33.03,1.99.1,3.38.4,6.5,2.11,7.3,5.56.28,1.21.25,2.7-.16,4.52-.42,1.84-1.25,4.3-2.52,6.74-.47.9-.96,1.79-1.46,2.66,2.56-3.47,5.63-7.22,9.23-10.64.38-.36,2.31-2.11,2.55-2.31.85-.73,1.72-1.44,2.6-2.1,1.67-1.24,3.41-2.34,5.28-3.11,1.38-.57,2.83-.94,4.28-.96.66-.01,1.33.05,1.99.19,1.75.37,2.31,1.67,2.35,1.8.27.75.45,1.86-.2,2.46Z"/>
      <path class="cls-1" d="M94.21,81.28c-.09-.31-.31-.5-.64-.56-.06-.01-.12-.01-.19-.01-.7,0-1.57.59-2.02,1.36-.25.43-.34.86-.25,1.2.08.3.31.5.64.56.06.01.12.02.19.02.7,0,1.57-.59,2.02-1.36.25-.42.34-.86.25-1.19Z"/>
      <path class="cls-1" d="M115.34,89.92s-.05-.04-.09-.04c-.04,0-.09.01-.15.07-2,2.23-4,4.34-6.33,5.64-.75.42-2.23.74-2.86.04-.25-.28-.35-.69-.3-1.22.09-.78.39-1.68.9-2.66,1.68-.22,4.15-.87,6.43-2.77.72-.6,1.25-1.25,1.59-1.92.2-.41.24-.89.1-1.27-.22-.58-.86-.75-1.42-.75-.8,0-1.66.32-2.24.59-1.08.5-1.85.97-2.03,1.08-.74.47-1.7,1.15-2.76,2.11-.01.02-.8.81-.8.81-1.02,1.04-1.55,1.57-2.21,2.07-.51.4-.8.54-1.04.64-.4.16-1.24.46-1.67.17-.18-.12-.45-.63.02-1.1.37-.37.46-.46.66-.66.44-.44,1.32-1.36,1.44-1.48,1.22-1.32,2.23-2.42,3.45-3.75.1-.09.15-.23.11-.35-.04-.12-.2-.21-.34-.22-.22-.01-.4.16-.47.25-3.53,4.09-7.22,7.89-8.55,9.12,0,0-1.52,1.49-3.22,1.75-.24.04-.48-.04-.67-.27-.18-.22-.16-.54-.12-.79.05-.29.15-.59.31-.95.34-.75.81-1.46,1.3-2.17.11-.15.21-.3.32-.45.03-.05,4.02-5.6,4.67-6.42,0,0-.4,0-.49,0-.75,0-1.8.08-3.22,1.13-.96.71-1.68,1.33-2.27,1.94-.32.32-3.46,3.73-4.49,4.79-1.8,1.87-3.23,2.98-3.84,2.98-.17,0-.27-.08-.31-.22-.06-.28.1-.64.24-.92l.02-.05c.34-.72.96-1.72,1.71-2.8.46-.67,4.42-6.16,4.89-6.76.02-.02-.32,0-.48,0-.75,0-1.72,0-3.13,1.04-.96.71-1.68,1.33-2.27,1.94-.37.38-3.53,3.85-4.44,4.79-1.74,1.8-3.16,2.93-3.8,3.01-.18.02-.34-.02-.42-.2-.17-.35.3-1.37,4.24-6.62,2.07-2.75,4.4-5.83,4.61-6.1h2.46c.06,0,.17-.04.19-.21,0-.02,0-.07-.02-.1-.02-.03-.06-.06-.14-.06h-2.18c2.59-3.31,4.11-5.21,4.77-5.98l.06-.07h-.09c-.13-.01-.27-.02-.41-.02-.71,0-2,.13-2.75,1.01-1.07,1.26-3.82,4.71-4.09,5.06h-2.26c-.06,0-.17.04-.19.22,0,.02,0,.07.04.11.02.02.06.05.13.05h1.99c-.47.62-.95,1.23-1.27,1.65-.3.39-.4.52-.44.57-.16.23-5.74,6.69-6.71,7.69-1.8,1.86-3.24,2.98-3.84,2.98-.17,0-.27-.08-.31-.22-.06-.28.25-.97.25-.97,1.2-2.57,6.04-8.42,6.99-9.56l.06-.07s-.28-.02-.37-.02c-1.67,0-3.05,1.25-3.5,1.7.17-.51.2-.9.08-1.16-.16-.37-.56-.45-.96-.49-.13-.01-.25-.02-.37-.02-2.81,0-5.87,2.66-7.95,4.89,0,0-4.04,4.39-6.31,5.66-.75.42-2.23.74-2.86.04-.25-.28-.35-.69-.3-1.22.08-.78.39-1.68.9-2.66,1.68-.22,4.15-.87,6.43-2.77.72-.6,1.26-1.25,1.59-1.92.21-.41.24-.89.1-1.27-.21-.58-.86-.75-1.42-.75-.8,0-1.66.32-2.24.59-2.14.98-3.83,2.19-5.83,4.2-.04.04-1.83,1.98-2.87,3.06-1.8,1.86-3.24,2.98-3.84,2.98-.17,0-.27-.08-.31-.22-.04-.16,0-.36.11-.64.17-.37.49-.9.99-1.59.01-.02.57-.74,1.27-1.64,1.28-1.63,4.17-5.16,4.46-5.54,0,0-.27.02-.51.06-.23.03-.52.05-.84.11-.96.19-1.46.21-1.73.21-.91,0-2.19-.3-2.36-.95-.06-.24.04-.49-.13-.61-.14-.1-.39-.05-.51.08-.17.17-.16.51.07.74-1.79,1.99-3.88,4.14-3.97,4.23,0,0-.04.04-.06.08h0c-.44.49-1.36,1.5-2.4,2.57-.6.62-1.25,1.23-1.87,1.74-.62.52-1.47,1.12-2.04,1.36-.74.32-1.72.39-2.18-.12-.25-.28-.34-.72-.27-1.31.21-2,1.94-4.93,4.3-7.29.9-.9,1.96-1.55,2.53-1.55.15,0,.26.05.31.14.09.14.12.55-.56,1.62-.2.32-.25.61-.13.82.09.17.28.26.52.26.85,0,1.79-1.04,2-1.91.15-.6-.03-1.06-.51-1.32-.67-.36-1.65-.36-3.09.17-3.74,1.38-5.96,5.11-6.05,5.24-.77,1.11-1.96,3.37-1.41,4.85.22.6.71.99,1.44,1.17,2.06.52,3.88-.56,5.38-1.86.72-.63,1.34-1.22,1.89-1.79.07-.08,2.17-2.31,2.56-2.78.01-.01.02-.03.04-.05h0c.68-.74,1.37-1.48,2.06-2.22.58-.62,1.16-1.24,1.74-1.85.16.14.4.32.72.48.18.09.32.14.42.16.61.19,1.25.22,1.59.22,0,0,.13,0,.24,0-.46.46-2.71,3.12-3.53,4.2-.03.04-.05.06-.05.07l-.07.09c-.82,1.02-2.99,3.75-2.43,4.93.17.36.59.54,1.24.54,1.42,0,3.63-2,5.24-3.68.09-.1,2.29-2.42,2.67-2.88.01-.01.02-.02.03-.04,0,0,.01,0,.02-.01-.1.13-.2.27-.31.44-.77,1.11-1.94,3.4-1.38,4.88.37.99,1.49,1.3,2.45,1.3.84,0,1.93-.25,2.83-.76,1.92-1.09,3.93-2.86,6.14-5.4-1.17,1.62-2.61,3.83-1.59,5.42.36.55.85.83,1.45.83,1.34,0,2.93-1.34,3.77-2.15l.16-.15c-.06.19-.14.51-.15.89-.01.41.1.74.32.96.36.37.91.37,1.1.37,1.42,0,3.63-2,5.24-3.68.09-.09,3.16-3.45,3.41-3.73-.69.92-1.4,1.89-2.06,2.87-.06.09-.12.19-.2.3-.65.97-1.72,2.58-1.37,3.59.26.75,1.25.66,1.25.66,1.58-.1,3.02-1.48,4.18-2.59.32-.3.65-.64,1.08-1.09.1-.1,2.71-2.93,2.72-2.96.07-.08.16-.17.26-.29.45-.5,1.13-1.25,1.39-1.51.86-.87,1.66-1.54,2.46-2.04-.42.54-2.71,3.58-2.71,3.58-.46.64-1.8,2.57-1.86,2.66-.84,1.26-1.3,2.3-1.3,2.91,0,.88.48,1.32,1.42,1.32,1.42,0,3.63-2,5.24-3.68.07-.08,4.15-4.5,4.41-4.77.85-.86,1.65-1.54,2.44-2.04-.04.05-.2.26-.24.31-.34.43-1.84,2.42-2.22,2.95-.49.66-.87,1.21-1.23,1.72-.57.84-1.02,1.55-1.35,2.33-.18.44-.38.95-.38,1.46,0,.43.12.81.38,1.08.38.41.93.62,1.63.62s1.31-.19,1.74-.35c.74-.28,1.49-.71,2.28-1.34.64-.5,1.11-.93,1.59-1.42.32-.33.63-.63.9-.89.21-.21.4-.39.56-.55.18.47.6.71,1.24.71.43,0,.87-.1,1.3-.29.7-.31,1.36-.79,2.22-1.6.2-.19.46-.46.65-.67-.05.07-.11.15-.16.23-.77,1.11-1.94,3.4-1.38,4.88.37.99,1.49,1.3,2.46,1.3.84,0,1.92-.25,2.83-.76,2.02-1.15,4.15-3.06,6.5-5.83.08-.09.08-.2,0-.28ZM109.88,87.26c.84-.85,1.57-1.38,2.25-1.62.36-.13.76-.11.7.37-.02.19-.1.42-.23.66-.55,1.07-1.66,2.2-3.28,3.35-.45.31-1.54.9-2.52,1.2.75-1.32,1.82-2.69,3.09-3.97ZM59.88,87.26c.84-.85,1.57-1.38,2.25-1.62.36-.13.76-.11.7.37-.02.19-.1.42-.23.66-.55,1.07-1.66,2.2-3.28,3.35-.45.31-1.54.9-2.52,1.2.75-1.32,1.82-2.69,3.08-3.97ZM65.41,96.36c-.33.04-.54-.09-.61-.37-.22-.79.64-2.65,2.25-4.84,2.16-2.95,5.07-5.56,6.37-5.69.04,0,.07,0,.11,0,.22,0,.36.09.42.26.16.47-.29,1.51-1.39,3.27-.87,1.38-1.59,2.41-2.34,3.32-1.87,2.32-3.81,3.95-4.81,4.06Z"/>
    </g>
    <g>
      <path class="cls-1" d="M54.94,38.62v1.17h1.27v.38h-1.27v1.2h1.42v.38h-1.88v-3.49h1.88v.38h-1.42Z"/>
      <path class="cls-1" d="M57.54,41.65c-.18-.08-.32-.2-.43-.34-.1-.14-.16-.31-.16-.5h.49c.02.16.08.3.2.41.12.11.29.17.52.17s.39-.05.51-.16c.12-.11.19-.25.19-.42,0-.13-.04-.24-.11-.32-.07-.08-.17-.15-.27-.19-.11-.04-.26-.09-.45-.14-.23-.06-.41-.12-.55-.18s-.26-.15-.35-.28c-.1-.13-.15-.3-.15-.52,0-.19.05-.36.14-.5.1-.15.23-.26.41-.34.18-.08.38-.12.6-.12.33,0,.59.08.8.24.21.16.33.38.35.65h-.5c-.02-.13-.09-.25-.21-.35-.12-.1-.29-.15-.49-.15-.19,0-.34.05-.46.15-.12.1-.18.24-.18.41,0,.13.04.23.11.31.07.08.16.14.26.18.11.04.25.09.44.14.23.06.42.13.56.19.14.06.26.16.36.28.1.13.15.3.15.52,0,.17-.04.33-.13.48-.09.15-.22.27-.4.37s-.38.14-.62.14-.44-.04-.62-.12Z"/>
      <path class="cls-1" d="M62.13,38.25v.37h-.95v3.12h-.46v-3.12h-.96v-.37h2.36Z"/>
      <path class="cls-1" d="M63.83,38.54v-.42h.94v3.62h-.46v-3.2h-.48Z"/>
      <path class="cls-1" d="M66.37,41.21c.12.1.29.15.49.15.28,0,.48-.11.61-.33.13-.22.19-.58.19-1.09-.07.15-.19.27-.35.35s-.34.13-.54.13c-.22,0-.42-.05-.6-.14-.17-.09-.31-.23-.41-.4-.1-.18-.15-.39-.15-.64,0-.36.1-.64.31-.86.21-.22.5-.33.88-.33.47,0,.79.15.98.46.19.3.28.75.28,1.35,0,.42-.04.77-.11,1.04s-.2.48-.38.62c-.18.14-.42.21-.73.21-.34,0-.61-.09-.8-.27-.19-.18-.3-.42-.32-.7h.42c.03.19.11.34.23.44ZM67.39,39.83c.14-.14.21-.33.21-.56,0-.25-.07-.45-.21-.6s-.34-.23-.59-.23c-.23,0-.42.07-.56.22s-.21.34-.21.58.07.44.21.58.33.22.6.22c.22,0,.41-.07.55-.21Z"/>
      <path class="cls-1" d="M69.52,41.21c.12.1.29.15.49.15.28,0,.48-.11.61-.33.13-.22.19-.58.19-1.09-.07.15-.19.27-.35.35-.16.08-.34.13-.54.13-.22,0-.42-.05-.6-.14-.18-.09-.31-.23-.41-.4-.1-.18-.15-.39-.15-.64,0-.36.1-.64.31-.86s.5-.33.88-.33c.47,0,.79.15.98.46s.28.75.28,1.35c0,.42-.04.77-.11,1.04s-.2.48-.38.62-.42.21-.73.21c-.34,0-.6-.09-.79-.27-.19-.18-.3-.42-.33-.7h.42c.03.19.11.34.23.44ZM70.54,39.83c.14-.14.22-.33.22-.56,0-.25-.07-.45-.21-.6-.14-.15-.34-.23-.59-.23-.23,0-.42.07-.56.22-.14.15-.21.34-.21.58s.07.44.21.58.33.22.59.22c.22,0,.41-.07.55-.21Z"/>
      <path class="cls-1" d="M74.08,38.48l-1.39,3.26h-.46l1.41-3.21h-1.93v-.39h2.37v.35Z"/>
    </g>
    <g>
      <path class="cls-1" d="M41.16,48.08c-.18-.08-.32-.2-.43-.34-.1-.14-.16-.31-.16-.5h.48c.02.16.08.3.2.41.12.11.29.17.52.17.22,0,.39-.05.51-.16.12-.11.19-.25.19-.42,0-.13-.04-.24-.11-.32-.07-.08-.17-.15-.28-.19-.11-.04-.26-.09-.45-.14-.23-.06-.41-.12-.55-.18-.14-.06-.26-.15-.36-.28s-.15-.3-.15-.52c0-.19.05-.36.15-.5.1-.15.23-.26.41-.34s.38-.12.6-.12c.33,0,.59.08.8.24.21.16.33.38.35.65h-.5c-.02-.13-.09-.25-.21-.35-.12-.1-.29-.15-.49-.15-.19,0-.35.05-.46.15-.12.1-.18.24-.18.41,0,.13.04.23.11.31.07.08.16.14.27.18.1.04.25.09.44.14.23.06.42.13.55.19.14.06.26.16.36.28.1.13.15.3.15.52,0,.17-.04.33-.13.48-.09.15-.22.27-.4.37-.18.09-.39.14-.62.14s-.44-.04-.62-.12Z"/>
      <path class="cls-1" d="M44.31,47.98c-.27-.15-.48-.36-.63-.64-.15-.27-.23-.58-.23-.92s.08-.65.23-.92c.16-.27.37-.48.63-.63.27-.15.56-.23.88-.23s.62.08.89.23c.27.15.48.36.63.63s.23.58.23.92-.08.65-.23.92-.36.48-.63.63c-.27.15-.56.23-.89.23s-.62-.08-.88-.23ZM45.85,47.64c.19-.11.35-.28.46-.49.11-.21.17-.45.17-.73s-.06-.52-.17-.73c-.11-.21-.26-.37-.46-.48s-.41-.17-.66-.17-.47.06-.66.17c-.19.11-.35.27-.46.48-.11.21-.17.45-.17.73s.06.52.17.73.26.37.46.49.41.17.66.17.46-.06.66-.17Z"/>
      <path class="cls-1" d="M47.6,45.51c.15-.27.36-.48.63-.64s.56-.23.88-.23c.38,0,.71.09,1,.27.28.18.49.44.62.78h-.54c-.1-.21-.24-.37-.42-.48s-.4-.17-.65-.17-.46.06-.66.17-.34.27-.46.48c-.11.21-.17.45-.17.73s.05.52.17.73c.11.21.26.37.46.48s.41.17.66.17.47-.06.65-.17c.18-.11.32-.27.42-.48h.54c-.13.33-.34.59-.62.77-.28.18-.62.27-1,.27-.32,0-.62-.08-.88-.23-.26-.15-.47-.36-.63-.63s-.23-.57-.23-.92.08-.65.23-.92Z"/>
      <path class="cls-1" d="M51.86,44.68v3.48h-.46v-3.48h.46Z"/>
      <path class="cls-1" d="M54.69,47.39h-1.52l-.28.77h-.48l1.26-3.46h.53l1.25,3.46h-.48l-.28-.77ZM54.56,47.02l-.63-1.76-.63,1.76h1.26Z"/>
      <path class="cls-1" d="M56.46,47.8h1.22v.37h-1.67v-3.48h.46v3.11Z"/>
      <path class="cls-1" d="M63.03,44.71v3.46h-.46v-2.58l-1.15,2.58h-.32l-1.16-2.58v2.58h-.46v-3.46h.49l1.28,2.86,1.28-2.86h.49Z"/>
      <path class="cls-1" d="M65.86,47.39h-1.52l-.28.77h-.48l1.26-3.46h.53l1.25,3.46h-.48l-.28-.77ZM65.73,47.02l-.63-1.76-.63,1.76h1.26Z"/>
      <path class="cls-1" d="M69.91,48.17h-.46l-1.83-2.77v2.77h-.46v-3.49h.46l1.83,2.77v-2.77h.46v3.49Z"/>
      <path class="cls-1" d="M72.75,47.39h-1.52l-.28.77h-.48l1.26-3.46h.53l1.25,3.46h-.48l-.28-.77ZM72.62,47.02l-.63-1.76-.63,1.76h1.26Z"/>
      <path class="cls-1" d="M76.7,45.69c-.1-.2-.24-.36-.42-.47-.18-.11-.4-.17-.64-.17s-.46.06-.66.17c-.2.11-.35.27-.46.48-.11.21-.17.45-.17.72s.06.51.17.72c.11.21.26.37.46.48.19.11.41.17.66.17.34,0,.62-.1.84-.31.22-.2.35-.48.38-.82h-1.39v-.37h1.88v.35c-.03.29-.12.55-.27.79-.15.24-.35.43-.6.56-.25.14-.53.21-.83.21-.32,0-.62-.08-.88-.23-.27-.15-.48-.36-.63-.63s-.23-.57-.23-.92.08-.65.23-.92c.16-.27.37-.48.63-.63.27-.15.56-.23.88-.23.37,0,.7.09.98.27.29.18.49.44.62.77h-.54Z"/>
      <path class="cls-1" d="M81.48,44.71v3.46h-.46v-2.58l-1.15,2.58h-.32l-1.16-2.58v2.58h-.46v-3.46h.49l1.28,2.86,1.28-2.86h.48Z"/>
      <path class="cls-1" d="M82.71,45.05v1.17h1.27v.38h-1.27v1.2h1.42v.38h-1.88v-3.49h1.88v.38h-1.42Z"/>
      <path class="cls-1" d="M87.56,48.17h-.46l-1.83-2.77v2.77h-.46v-3.49h.46l1.83,2.77v-2.77h.46v3.49Z"/>
      <path class="cls-1" d="M90.48,44.68v.37h-.95v3.12h-.46v-3.12h-.96v-.37h2.36Z"/>
    </g>
    <g>
      <path class="cls-1" d="M49.45,112.3c-.15-.07-.26-.16-.34-.27-.08-.12-.13-.25-.13-.4h.39c.01.13.07.24.16.33s.23.13.41.13.31-.04.41-.13c.1-.09.15-.2.15-.33,0-.11-.03-.19-.09-.26-.06-.07-.13-.12-.22-.15s-.21-.07-.36-.11c-.18-.05-.33-.1-.44-.14-.11-.05-.21-.12-.28-.23-.08-.1-.12-.24-.12-.41,0-.15.04-.29.12-.4s.19-.21.33-.27c.14-.06.3-.1.48-.1.26,0,.48.07.64.2.17.13.26.3.28.52h-.4c-.01-.11-.07-.2-.17-.28-.1-.08-.23-.12-.39-.12-.15,0-.28.04-.37.12-.1.08-.14.19-.14.33,0,.1.03.18.09.25s.13.11.21.15.2.07.35.11c.18.05.33.1.44.15.11.05.21.12.29.23.08.1.12.24.12.42,0,.14-.04.26-.11.38-.07.12-.18.22-.32.29s-.31.11-.5.11-.35-.03-.49-.1Z"/>
      <path class="cls-1" d="M53.13,109.58v.3h-.76v2.49h-.36v-2.49h-.76v-.3h1.89Z"/>
      <path class="cls-1" d="M55.53,109.58l-.91,1.74v1.05h-.36v-1.05l-.91-1.74h.4l.69,1.41.69-1.41h.4Z"/>
      <path class="cls-1" d="M56.28,112.07h.98v.3h-1.34v-2.79h.36v2.49Z"/>
      <path class="cls-1" d="M58,109.88v.93h1.02v.3h-1.02v.96h1.14v.3h-1.5v-2.79h1.5v.3h-1.14Z"/>
      <path class="cls-1" d="M62.95,112.37h-.36l-1.46-2.22v2.22h-.36v-2.79h.36l1.46,2.22v-2.22h.36v2.79Z"/>
      <path class="cls-1" d="M64.13,112.22c-.21-.12-.38-.29-.51-.51s-.19-.46-.19-.73.06-.52.19-.73.29-.39.51-.51c.21-.12.45-.18.71-.18s.5.06.71.18c.21.12.38.29.5.51.12.22.18.46.18.74s-.06.52-.18.74c-.12.22-.29.38-.5.51-.21.12-.45.18-.71.18s-.5-.06-.71-.18ZM65.36,111.95c.16-.09.28-.22.37-.39.09-.17.13-.36.13-.58s-.04-.42-.13-.59c-.09-.17-.21-.3-.37-.39-.16-.09-.33-.14-.53-.14s-.37.05-.53.14c-.15.09-.28.22-.37.39-.09.17-.13.36-.13.59s.04.42.13.58c.09.17.21.3.37.39.16.09.33.14.53.14s.37-.05.53-.14Z"/>
      <path class="cls-1" d="M69.57,109.79h-1.4v.91c.06-.09.15-.16.27-.21s.25-.08.39-.08c.22,0,.4.05.54.14.14.09.24.21.3.36.06.15.09.3.09.46,0,.19-.04.36-.11.52-.07.15-.18.27-.33.36-.15.09-.33.13-.55.13-.28,0-.51-.07-.68-.22-.17-.14-.28-.34-.32-.58h.36c.03.15.11.27.22.36.11.09.25.13.42.13.21,0,.37-.06.48-.19.11-.13.16-.29.16-.5s-.05-.37-.16-.48c-.11-.11-.26-.17-.47-.17-.14,0-.26.03-.37.1-.1.07-.18.16-.23.28h-.34v-1.63h1.74v.32Z"/>
      <path class="cls-1" d="M70.99,111.41c.19-.17.35-.36.49-.55.13-.19.2-.38.2-.56,0-.17-.04-.31-.13-.41s-.22-.15-.41-.15-.32.06-.42.17c-.1.11-.15.26-.16.45h-.35c.01-.3.1-.53.27-.69.17-.16.39-.24.66-.24s.49.08.65.23c.16.15.24.36.24.63,0,.22-.07.44-.2.65s-.28.39-.45.55-.38.34-.64.55h1.38v.3h-1.92v-.26c.34-.27.6-.5.8-.67Z"/>
      <path class="cls-1" d="M73.6,109.72c-.24,0-.41.09-.53.27-.12.18-.17.48-.17.9.06-.14.16-.25.31-.33s.3-.12.48-.12c.27,0,.49.09.66.26.16.17.25.41.25.71,0,.18-.04.34-.11.49-.07.14-.18.26-.32.34-.14.09-.32.13-.52.13-.27,0-.49-.06-.64-.18-.16-.12-.26-.29-.32-.51-.06-.22-.09-.48-.09-.8,0-.98.34-1.47,1.02-1.47.26,0,.47.07.62.21.15.14.24.32.26.54h-.34c-.06-.3-.24-.44-.55-.44ZM73.28,110.83c-.1.05-.18.12-.25.21-.06.09-.09.21-.09.35,0,.2.06.37.18.49.12.13.29.19.5.19.19,0,.33-.06.45-.17.11-.12.17-.27.17-.47,0-.21-.05-.37-.16-.49-.11-.12-.26-.18-.47-.18-.11,0-.22.02-.32.07Z"/>
      <path class="cls-1" d="M74.99,111.73v-.28l1.4-1.94h.44v1.9h.4v.32h-.4v.64h-.36v-.64h-1.48ZM76.48,109.89l-1.08,1.52h1.08v-1.52Z"/>
      <path class="cls-1" d="M77.87,109.63c.17-.14.39-.21.66-.21.18,0,.34.03.47.1s.23.15.3.27c.07.11.1.24.1.38,0,.17-.05.31-.14.43s-.22.2-.37.23v.02c.17.04.31.13.41.25s.15.29.15.49c0,.15-.04.29-.1.41-.07.12-.17.22-.31.29s-.31.1-.5.1c-.28,0-.51-.07-.7-.22-.18-.15-.28-.36-.3-.63h.35c.02.16.08.29.2.39.11.1.26.15.45.15s.33-.05.43-.15c.1-.1.15-.22.15-.38,0-.2-.07-.34-.2-.43-.13-.09-.33-.13-.6-.13h-.09v-.3h.1c.25,0,.43-.04.56-.12.12-.08.19-.2.19-.37,0-.14-.05-.25-.14-.34-.09-.09-.22-.13-.39-.13s-.3.04-.4.13c-.1.08-.16.2-.18.34h-.36c.02-.25.11-.44.28-.58Z"/>
    </g>
    <g>
      <path class="cls-1" d="M59.13,130c.38.31.89.47,1.53.47.83,0,1.43-.34,1.8-1.03.37-.69.56-1.84.56-3.47-.31.43-.74.76-1.29,1-.55.24-1.15.36-1.79.36-.85,0-1.62-.18-2.31-.53-.69-.35-1.23-.88-1.63-1.58-.4-.7-.6-1.55-.6-2.55,0-1.48.44-2.66,1.32-3.53.88-.87,2.08-1.31,3.6-1.31,1.89,0,3.23.61,4.01,1.82.78,1.21,1.17,3.04,1.17,5.48,0,1.73-.15,3.15-.45,4.26s-.81,1.95-1.54,2.52-1.72.86-2.97.86c-.99,0-1.83-.19-2.52-.57-.69-.38-1.22-.88-1.59-1.5-.37-.62-.58-1.3-.63-2.05h2.6c.11.59.35,1.04.73,1.35ZM62.16,124.41c.4-.43.6-1,.6-1.72,0-.79-.21-1.4-.63-1.83-.42-.43-.99-.65-1.71-.65s-1.29.22-1.71.67c-.42.45-.63,1.04-.63,1.77s.2,1.28.61,1.73c.41.45,1.02.67,1.83.67.69,0,1.24-.21,1.64-.64Z"/>
      <path class="cls-1" d="M76.96,120.29l-5.32,12.46h-2.84l5.36-12.14h-6.84v-2.4h9.64v2.08Z"/>
    </g>
    <path class="cls-1" d="M64.39,167C28.89,167,0,129.54,0,83.5S28.89,0,64.39,0s64.39,37.46,64.39,83.5-28.89,83.5-64.39,83.5ZM64.39,1C29.44,1,1,38.01,1,83.5s28.44,82.5,63.39,82.5,63.39-37.01,63.39-82.5S99.35,1,64.39,1Z"/>
    <g>
      <path class="cls-1" d="M15.26,51.79c-.34-.11-.7.07-.95.84l-.2-.07.95-2.86.2.07c-.23.95.07,1.26.89,2.01l6.23,5.67-.08.24-8.56,1.1c-1.18.15-1.49.3-1.86,1.19l-.2-.07,1.23-3.71.2.07c-.2.74-.19,1.19.25,1.33.2.07.44.05,1.25-.05l6.35-.78-4.66-4.21c-.63-.57-.82-.7-1.02-.77Z"/>
      <path class="cls-1" d="M24.96,49.87l.19.08-1.59,3.69-.19-.08c.47-1.09.36-1.43-.74-1.9l-5.49-2.36c-1.1-.47-1.38-.31-1.85.79l-.19-.08,1.59-3.69.19.08c-.47,1.09-.4,1.41.7,1.89l5.49,2.36c1.1.47,1.42.32,1.89-.77Z"/>
      <path class="cls-1" d="M17.09,45.7l-.18-.1,3.54-6.55,2.32.3-.04.23c-1.48.13-2.39.56-3.04,1.77l-1.17,2.17,3.32,1.79.73-1.35c.6-1.12.7-1.58-.33-2.24l.11-.21,2.76,1.49-.11.21c-1.11-.46-1.45-.19-2.06.95l-.73,1.35,2.93,1.58c.55.3.85.25,1.23-.46l.77-1.43c.65-1.21.51-2.21-.19-3.52l.17-.16,1.52,1.78-3.6,6.68-.18-.1c.57-1.05.48-1.39-.57-1.96l-5.26-2.84c-1.05-.57-1.35-.43-1.92.62Z"/>
      <path class="cls-1" d="M30.72,39.87l.17.12-2.06,2.79-.17-.12c.71-.96.67-1.31-.29-2.02l-5.09-3.75c-.87.04-1.43.19-2.06,1.03l-.17-.12,1.55-2.1,9.19-.36.05-.06-4.35-3.2c-1.1-.81-1.43-.71-2.14.25l-.17-.12,2.07-2.81.17.12c-.71.96-.7,1.31.39,2.12l6.11,4.5-.17.23-9.61.41-.05.06,4.59,3.38c.96.71,1.32.62,2.03-.33Z"/>
      <path class="cls-1" d="M36.54,32.85l.15.15-2.5,2.41-.14-.15c.85-.83.88-1.18.05-2.04l-4.39-4.54c-.87-.11-1.45-.06-2.2.67l-.14-.15,1.88-1.81,9.12,1.18.06-.05-3.75-3.88c-.95-.98-1.3-.94-2.15-.11l-.15-.15,2.51-2.42.15.15c-.85.83-.91,1.17.04,2.15l5.27,5.46-.2.2-9.53-1.2-.06.05,3.96,4.09c.83.86,1.2.83,2.05,0Z"/>
      <path class="cls-1" d="M39.76,29.44c.64-.5.74-.98.57-2.09l-1.31-8.41.17-.11,7.03,4.33c.84.51,1.52.98,2.47.41l.12.17-3.13,2.06-.12-.17c.56-.4.81-.73.56-1.12-.17-.26-.66-.55-.92-.71l-1.13-.69-3.49,2.29.23,1.46c.06.38.14.78.28,1,.27.41.77.15,1.3-.16l.12.17-2.64,1.74-.11-.17ZM40.53,24.97l3.17-2.09-3.95-2.45.78,4.54Z"/>
      <path class="cls-1" d="M60.19,12.06c-.09-.45-.41-.58-1.25-.41l-.04-.21,2.91-.61.04.2c-.86.18-1.02.68-1.2,1.77l-1.26,8.11-.25.05-3.56-5.34h-.03s-.97,6.29-.97,6.29l-.26.05-4.71-7.14c-.53-.8-.77-1.09-1.66-.91l-.04-.2,3.44-.72.04.2c-.55.12-1.02.33-.92.79.03.12.14.34.39.73l3.43,5.3h.06s.8-5.1.8-5.1l-.61-.94c-.68-1.04-1.02-1.22-1.85-1.05l-.04-.21,3.63-.76.04.21c-.66.14-1.12.3-1,.85.06.29.23.55.67,1.23l3.11,4.77h.06s.92-5.69.92-5.69c.06-.34.16-.97.1-1.29Z"/>
      <path class="cls-1" d="M60,20.11c.81-.05,1.17-.39,1.66-1.39l3.73-7.64h.2s3.3,7.57,3.3,7.57c.4.9.69,1.68,1.8,1.75v.21s-3.76-.1-3.76-.1v-.21c.69,0,1.09-.14,1.1-.6,0-.31-.23-.83-.34-1.11l-.53-1.21-4.17-.11-.65,1.33c-.17.34-.33.72-.34.98-.01.49.55.56,1.16.62v.21s-3.16-.09-3.16-.09v-.21ZM63.18,16.88l3.8.1-1.84-4.27-1.96,4.17Z"/>
      <path class="cls-1" d="M76.3,13.09c-1.99-.53-4.01.51-4.79,3.45s.99,4.52,2.76,4.99c1.59.42,2.66-.04,3.88-.96l.18.16c-1.32,1.26-2.77,1.71-4.75,1.18-2.72-.73-4.05-3.19-3.38-5.71.71-2.64,3.3-4.29,6.17-3.53,1.13.3,1.79,1.01,2.09,1.09.3.08.49-.26.6-.37l.21.06.05,3.14h-.26c-.44-1.7-1.18-3.08-2.77-3.51Z"/>
      <path class="cls-1" d="M86.91,17.61l.1-.18,3.55,1.95-.1.18c-1.04-.57-1.37-.53-1.94.52l-2.87,5.24c-.58,1.05-.46,1.39.58,1.96l-.1.18-3.55-1.95.1-.18c1.04.57,1.39.49,1.96-.56l1.35-2.47-4.45-2.44-1.35,2.47c-.58,1.05-.46,1.38.58,1.96l-.1.18-3.55-1.95.1-.18c1.04.57,1.39.49,1.96-.56l2.87-5.24c.58-1.05.44-1.35-.6-1.92l.1-.18,3.55,1.95-.1.18c-1.04-.57-1.37-.53-1.94.52l-1.31,2.38,4.45,2.44,1.31-2.38c.58-1.05.44-1.35-.6-1.92Z"/>
      <path class="cls-1" d="M91.38,20.33l.14-.16,5.68,4.81-.77,2.21-.21-.09c.18-1.47-.05-2.45-1.1-3.34l-1.88-1.6-2.44,2.88,1.17.99c.97.82,1.4,1,2.26.14l.18.15-2.02,2.39-.18-.15c.68-1,.49-1.38-.5-2.21l-1.17-.99-2.15,2.54c-.4.48-.41.78.19,1.3l1.24,1.05c1.05.89,2.06.96,3.48.54l.12.19-2.06,1.12-5.79-4.9.13-.16c.91.77,1.26.76,2.04-.16l3.86-4.56c.77-.92.7-1.24-.21-2Z"/>
      <path class="cls-1" d="M94.51,34.87l1.15,1.34c.92,1.07,2.03,1.08,3.5.89l.09.23-2.48.96-4.97-5.81.16-.14c.77.9,1.12.95,2.03.17l4.54-3.89c.91-.78.88-1.11.11-2.01l.16-.14,2.79,3.26-.16.14c-.96-1.13-1.26-1.17-2.17-.39l-4.74,4.06c-.48.41-.53.71-.02,1.31Z"/>
      <path class="cls-1" d="M97.19,38.34c.63,1.01.97,1.11,1.99.47l5.06-3.17c1.01-.64,1.04-.96.41-1.97l.18-.11,2.05,3.27c1.94,3.1,2.06,5.81-.67,7.53-2.13,1.34-4.96.84-6.87-2.2l-2.32-3.7.18-.11ZM99.69,41.9c1.34,2.15,3.62,2.68,5.76,1.33,2.36-1.48,2.59-3.73,1.29-5.81-.27-.44-.7-1-1.06-1.35l-6.77,4.25c.18.5.49,1.13.78,1.58Z"/>
      <path class="cls-1" d="M110.33,42.97l.19-.09,3.08,6.78-1.64,1.67-.15-.17c.79-1.25,1-2.24.43-3.49l-1.02-2.25-3.44,1.56.63,1.4c.52,1.15.84,1.51,1.98,1.09l.1.21-2.85,1.3-.1-.21c1.04-.61,1.03-1.04.49-2.22l-.63-1.4-3.03,1.38c-.57.26-.71.53-.38,1.25l.67,1.48c.57,1.25,1.45,1.75,2.92,1.97l.03.23-2.34.14-3.14-6.9.19-.09c.49,1.08.82,1.23,1.91.73l5.44-2.47c1.09-.5,1.16-.82.67-1.9Z"/>
      <path class="cls-1" d="M105.78,54.23c.36,1.13.67,1.31,1.81.95l5.69-1.82c1.14-.37,1.25-.68.88-1.81l.2-.06,1.27,3.96c.68,2.13.16,3.61-1.23,4.06-1.25.4-2.43-.52-3.16-1.91l-3,4.8-.07.02-.41-1.3,3.01-4.77-.29-.89-2.55.81c-1.14.37-1.29.69-.92,1.84l-.2.06-1.24-3.87.2-.06ZM111.05,55.93c.64,2.01,1.69,2.74,2.89,2.36s1.66-1.57,1.25-2.86c-.21-.67-.39-1.03-.56-1.3l-3.74,1.2c.03.19.09.38.16.6Z"/>
    </g>
    <g>
      <path class="cls-1" d="M13,110.89c.42,1.11.74,1.27,1.86.85l5.58-2.13c1.12-.43,1.21-.74.78-1.85l.2-.07,1.38,3.61c1.3,3.42.89,6.1-2.12,7.25-2.36.9-5.03-.14-6.31-3.5l-1.55-4.07.2-.07ZM14.76,114.87c.9,2.37,3.03,3.33,5.4,2.43,2.6-.99,3.27-3.15,2.4-5.45-.18-.48-.49-1.12-.78-1.53l-7.47,2.85c.08.52.27,1.2.45,1.7Z"/>
      <path class="cls-1" d="M24.73,116.87l.18-.1,3.51,6.57-1.53,1.78-.16-.16c.71-1.3.85-2.3.21-3.51l-1.16-2.18-3.33,1.78.72,1.35c.6,1.12.93,1.45,2.05.96l.11.21-2.76,1.48-.11-.21c1-.67.96-1.1.35-2.24l-.72-1.35-2.94,1.57c-.55.3-.67.57-.3,1.28l.77,1.43c.65,1.21,1.56,1.65,3.04,1.78l.04.23-2.33.29-3.57-6.69.18-.1c.56,1.05.89,1.17,1.95.61l5.27-2.82c1.06-.56,1.1-.89.54-1.94Z"/>
      <path class="cls-1" d="M30.81,127.25c-.63-.89-1.66-1.2-2.39-.68-1.95,1.39,1.45,5.95-.93,7.65-1.25.89-2.79.32-3.75-1.02-.82-1.15-.84-1.9-1.11-2.28-.14-.19-.42-.2-.65-.19l-.13-.18,2.07-2.74.21.16c-.77,2.28-.99,3.64-.09,4.92.72,1.02,1.71,1.18,2.47.64,2.06-1.47-1.36-5.85,1.02-7.54,1.08-.77,2.64-.34,3.59.99.68.96.67,1.67.95,2.05.14.19.41.09.57.08l.13.18-1.91,2.41-.2-.16c.66-1.72.96-3.14.14-4.29Z"/>
      <path class="cls-1" d="M29.15,139.17l-.16.14-2.64-3.03.16-.14c.78.9,1.13.94,2.04.15l4.5-3.93c.9-.79.87-1.12.09-2.01l.16-.14,2.64,3.03-.16.14c-.78-.89-1.1-.97-2-.18l-4.5,3.93c-.9.79-.9,1.14-.12,2.04Z"/>
      <path class="cls-1" d="M39.37,136.8c-1.7-1.5-3.88-1.2-5.53.68-1.79,2.04-1.75,4.46,0,6.01.87.76,1.65.89,2.61.85l1.27-1.44c.79-.9.75-1.25-.16-2.05l.14-.16,2.74,2.4-.14.16c-.74-.65-1.09-.53-1.74.2l-2.3,2.61-.22-.2.04-1.11c-1.04.03-1.95-.29-2.93-1.14-2.17-1.91-2.33-4.74-.61-6.7,1.8-2.05,4.86-2.38,7.03-.47.94.83,1.38,1.89,1.61,2.1s.55-.01.7-.07l.16.14-1.45,2.58-.24-.13c.51-1.7.17-3.22-1.01-4.25Z"/>
      <path class="cls-1" d="M41.2,149l-.1.18-3.03-1.7.1-.18c1.04.58,1.38.51,1.97-.54l3.1-5.51c-.14-.86-.36-1.4-1.27-1.92l.1-.18,2.28,1.28,1.47,9.08.07.04,2.65-4.71c.67-1.19.53-1.51-.51-2.09l.1-.18,3.04,1.71-.1.18c-1.04-.58-1.38-.54-2.05.65l-3.73,6.61-.25-.14-1.57-9.48-.07-.04-2.8,4.96c-.59,1.04-.46,1.39.58,1.97Z"/>
      <path class="cls-1" d="M50.18,143.99l.06-.2,7.12,2.18.17,2.34h-.23c-.42-1.42-1.02-2.23-2.33-2.63l-2.36-.72-1.1,3.61,1.47.45c1.21.37,1.69.37,2.13-.76l.22.07-.92,3-.22-.07c.23-1.18-.09-1.46-1.33-1.84l-1.47-.45-.97,3.18c-.18.6-.07.88.69,1.11l1.56.48c1.32.4,2.27.07,3.41-.88l.19.13-1.45,1.84-7.25-2.22.06-.2c1.14.35,1.46.2,1.81-.95l1.75-5.71c.35-1.15.15-1.41-.98-1.76Z"/>
      <path class="cls-1" d="M57.2,155.25c1.19.06,1.46-.16,1.52-1.36l.3-5.96c.06-1.2-.19-1.4-1.38-1.46v-.21s3.87.2,3.87.2c3.65.19,5.94,1.64,5.78,4.87-.13,2.52-2.15,4.54-5.75,4.36l-4.35-.22v-.21ZM61.55,155.25c2.53.13,4.27-1.43,4.39-3.96.14-2.78-1.57-4.26-4.02-4.38-.51-.03-1.22,0-1.71.09l-.4,7.98c.51.14,1.21.24,1.74.27Z"/>
      <path class="cls-1" d="M76.59,153.81l.06.2-3.91,1.12-.06-.2c1.14-.33,1.33-.63,1-1.78l-1.64-5.74c-.33-1.15-.64-1.26-1.78-.94l-.06-.2,6.58-1.88,1.43,1.88-.21.13c-1.12-.97-2.07-1.32-3.39-.94l-1.8.52,1.03,3.61,1.19-.34c1.22-.35,1.62-.61,1.37-1.8l.23-.06.86,3.01-.23.06c-.45-1.12-.87-1.17-2.12-.81l-1.19.34.82,2.85c.33,1.15.65,1.3,1.81.97Z"/>
      <path class="cls-1" d="M81.33,141.93c2.5-1.35,5.24-.37,6.5,1.96,1.23,2.27.59,5.16-1.92,6.52-2.52,1.36-5.29.31-6.51-1.95-1.22-2.27-.57-5.17,1.93-6.53ZM86.65,144.53c-1.05-1.95-2.88-3.46-5.12-2.25-2.25,1.22-1.99,3.59-.94,5.53,1.06,1.96,2.9,3.45,5.14,2.24,2.25-1.22,1.99-3.56.93-5.52Z"/>
      <path class="cls-1" d="M91.03,146.94c.91-.76.96-1.12.19-2.03l-3.84-4.58c-.77-.92-1.1-.9-2.01-.13l-.13-.16,3.19-2.67c1.71-1.44,3.28-1.51,4.22-.39.84,1,.44,2.45-.58,3.64l5.58.96.04.05-1.04.87-5.55-.98-.72.6,1.72,2.05c.77.92,1.12.93,2.05.15l.13.16-3.11,2.61-.13-.16ZM90.61,141.43c1.62-1.36,1.89-2.61,1.09-3.57s-2.08-.95-3.12-.07c-.54.45-.8.75-.99,1.01l2.52,3.01c.16-.1.32-.23.5-.38Z"/>
      <path class="cls-1" d="M99.26,126.62c-.31-.23-.68-.16-1.16.48l-.17-.12,2.11-2.82.17.12c-.59.79-.5,1.58-.19,2.51l1.41,4.35,1.83,1.37c.96.72,1.31.65,2.03-.32l.17.13-2.45,3.27-.17-.12c.72-.96.69-1.32-.27-2.04l-1.72-1.29-5.48-.06c-.64,0-1.2.28-1.54.71l-.17-.12,2.46-3.29.17.12c-.38.51-.67,1.01-.28,1.3.18.13.55.17.8.19l4.08.13-1.07-3.4c-.2-.62-.38-.95-.57-1.09Z"/>
      <path class="cls-1" d="M101.22,121.27c1.38-2.49,4.22-3.13,6.53-1.84,2.25,1.25,3.27,4.03,1.89,6.52-1.39,2.5-4.29,3.11-6.54,1.86-2.25-1.25-3.26-4.05-1.88-6.54ZM107.1,120.6c-1.94-1.08-4.29-1.36-5.53.87-1.24,2.24.26,4.1,2.18,5.16,1.95,1.08,4.3,1.35,5.54-.88,1.24-2.24-.24-4.07-2.19-5.15Z"/>
      <path class="cls-1" d="M103.83,117.52l-.19-.07,1.47-3.84.19.08c-.42,1.11-.34,1.44.78,1.87l3.73,1.43c2.24.86,3.57-.06,4.18-1.66.57-1.49.21-3.13-2.02-3.99l-3.56-1.36c-1.27-.49-1.57-.3-1.99.81l-.19-.07,1.25-3.26.2.08c-.42,1.11-.33,1.45.94,1.93l3.5,1.34c2.08.8,3.22,2.49,2.29,4.93-.99,2.58-2.85,3.18-5,2.36l-3.73-1.43c-1.12-.43-1.4-.23-1.83.88Z"/>
    </g>
    <g>
      <path class="cls-1" d="M74.87,122.04c-.36-.09-.64-.36-.72-.71-.17-.76.37-1.52.93-1.97.3-.25.66-.43,1.03-.54.04-.01.2-.06.25-.07.2-.04.5-.09.83-.05.1,0,.2.03.29.05.5.11.93.42,1,.94.02.19,0,.41-.1.67-.09.27-.25.62-.48.96-.08.13-.17.25-.26.37.44-.48.95-.99,1.54-1.44.06-.05.38-.28.42-.3.14-.1.28-.19.42-.27.27-.16.55-.29.84-.38.21-.06.44-.09.65-.08.1,0,.2.03.29.06.25.08.32.29.32.31.03.12.04.28-.07.36-.06.05-.12.06-.17.06.06-.18.06-.48-.11-.61-.09-.07-.19-.1-.3-.11-.2-.02-.4.01-.59.06-.29.08-.57.22-.83.37-.14.08-.28.17-.41.26-.08.06-.37.27-.43.31-.23.18-.44.37-.65.55-.19.17-.38.35-.56.53-.05.05-.1.11-.16.17-.33.36-.65.72-.97,1.08-.19.21-.37.42-.57.62-.02.02-.13.14-.16.14-.01,0-.11-.17-.03-.27.08-.1.51-.59.51-.59.19-.22.46-.55.8-1.03.41-.57,1.06-1.78.64-2.33-.15-.2-.39-.3-.63-.36-.09-.02-.19-.04-.28-.05-.31-.04-.59,0-.79.04,0,0-.26.07-.26.07-.37.11-.72.29-1.02.53-.55.44-1.07,1.18-.9,1.9.07.31.32.56.65.65v.07Z"/>
      <path class="cls-1" d="M76.65,127.08c-.43-.05-.86-.16-1.26-.34-2.51-1.13-3.43-4.54-2.05-7.61,1.38-3.07,4.55-4.65,7.06-3.52,2.51,1.13,3.43,4.54,2.05,7.61-1.16,2.57-3.57,4.1-5.79,3.86ZM79.12,115.38c-2.18-.23-4.54,1.27-5.68,3.79-1.35,3.01-.46,6.36,2,7.46,2.45,1.1,5.55-.45,6.9-3.46,1.35-3.01.46-6.36-2-7.46-.4-.18-.81-.29-1.23-.33Z"/>
    </g>
  </g>
</svg>