<?xml version="1.0" encoding="UTF-8"?>
<svg id="Layer_2" data-name="Layer 2" xmlns="http://www.w3.org/2000/svg" viewBox="0 0 298.07 89.35">
  <defs>
    <style>
      .cls-1 {
        fill: currentColor;
      }
    </style>
  </defs>
  <g id="Layer_1-2" data-name="Layer 1">
    <g>
      <path class="cls-1" d="M15.96,65.3s.02.01.03.01"/>
      <path class="cls-1" d="M145.87,13.7c-1.07.98-2.11,1.28-3,1.45.7-3.42.08-9.07-3.22-11.04-1.74-1.04-3.71-1.46-5.76-1.48-3.75-.03-7.47,1-10.8,2.34-5.18,2.09-10.13,5.26-14.76,8.61-2.46,1.79-4.84,3.67-7.1,5.58-1.42,1.19-6.35,5.67-7.37,6.65-3.91,3.77-7.53,7.77-10.97,11.53-3.26,3.57-6.39,7.25-9.28,10.92-.88,1.12-1.73,2.25-2.58,3.39-5.4,7.3-10.58,14.76-15.92,22.1-3.1,4.26-6.13,8.61-9.38,12.75-.35.44-2.17,2.78-2.64,2.85-.27.05-2.42-3.02-1.15-4.87,1.29-1.98,8.35-12.05,8.35-12.06,3.11-4.54,7.37-11.2,12.82-20.79,6.47-11.37,16.27-35.22,7.36-44.56-3.27-3.43-7.84-4.8-12.42-5.48-1.77-.18-3.54-.34-5.32-.36-5.81-.05-11.02,1.18-14.56,2.37,0,.02-4.62,1.78-4.62,1.78-6.7,2.79-12.86,6.82-17.94,11.94C6.34,26.64-1.96,41.3,2.56,54.49c1.96,5.69,7.13,9.83,13.4,10.81.01.01.02.01.03.01.29.08.5.34.5.65,0,.23-.13.44-.31.56-.1.06-.22.1-.35.1h-.04s-.1-.01-.15-.03c-6.67-1.08-12.2-5.53-14.29-11.65-4.73-13.78,3.8-28.95,13.35-38.57,5.14-5.16,11.35-9.25,18.12-12.11.72-.3,3.64-1.42,4.56-1.73C41.02,1.33,46.58-.06,52.78,0c1.86-.02,3.72.08,5.56.29,9.46,1.11,18.2,5.92,20.45,15.56.79,3.4.7,7.57-.45,12.65-1.17,5.15-3.49,12.05-7.06,18.87-1.32,2.51-2.69,5-4.08,7.44,7.17-9.72,15.78-20.22,25.86-29.79,1.07-1.02,6.48-5.91,7.13-6.48,2.38-2.05,4.81-4.03,7.29-5.88,4.68-3.47,9.56-6.55,14.8-8.72,3.87-1.6,7.93-2.62,11.98-2.7,1.86-.03,3.73.13,5.58.53,4.89,1.05,6.46,4.68,6.59,5.05.77,2.1,1.27,5.22-.56,6.88Z"/>
      <path class="cls-1" d="M238.7,40.9c-.24-.86-.88-1.41-1.79-1.57-.17-.03-.35-.04-.54-.04-1.97,0-4.4,1.64-5.67,3.81-.7,1.2-.95,2.42-.69,3.35.23.85.86,1.4,1.78,1.56.17.03.35.05.54.05,1.97,0,4.4-1.64,5.66-3.82.71-1.19.96-2.42.71-3.34Z"/>
      <path class="cls-1" d="M297.9,65.09s-.13-.1-.25-.1c-.1,0-.26.03-.41.21-5.61,6.24-11.2,12.15-17.74,15.8-2.11,1.17-6.24,2.08-8.02.1-.71-.79-.99-1.94-.83-3.43.24-2.19,1.08-4.7,2.51-7.46,4.7-.61,11.62-2.44,18.02-7.77,2.02-1.68,3.51-3.49,4.44-5.39.57-1.16.68-2.49.28-3.55-.61-1.63-2.41-2.09-3.99-2.09-2.23,0-4.65.89-6.28,1.64-3.02,1.39-5.18,2.72-5.68,3.03-2.06,1.32-4.77,3.23-7.73,5.92-.04.05-2.23,2.27-2.23,2.27-2.86,2.91-4.33,4.39-6.18,5.8-1.44,1.11-2.25,1.51-2.92,1.8-1.13.46-3.48,1.28-4.67.47-.51-.34-1.26-1.76.06-3.08,1.04-1.04,1.3-1.28,1.86-1.86,1.22-1.24,3.7-3.81,4.02-4.15,3.43-3.71,6.24-6.79,9.67-10.5.29-.26.42-.65.32-.98-.11-.35-.55-.59-.94-.61-.61-.04-1.11.46-1.32.69-9.88,11.45-20.23,22.1-23.96,25.54,0,0-4.25,4.17-9.02,4.89-.66.1-1.35-.1-1.88-.77-.51-.62-.45-1.5-.35-2.2.13-.8.41-1.64.87-2.66.95-2.11,2.27-4.08,3.65-6.08.3-.42.59-.84.89-1.26.09-.14,11.25-15.68,13.07-17.97.02-.02-1.12,0-1.38,0-2.09,0-5.04.23-9.01,3.17-2.68,2-4.7,3.72-6.36,5.42-.89.91-9.7,10.46-12.57,13.43-5.05,5.23-9.06,8.35-10.75,8.35-.48,0-.77-.22-.86-.63-.18-.78.28-1.78.66-2.57l.06-.13c.94-2.02,2.7-4.81,4.8-7.85,1.3-1.88,12.38-17.25,13.71-18.92.05-.06-.91,0-1.34,0-2.1,0-4.81-.02-8.78,2.92-2.69,2-4.7,3.73-6.37,5.42-1.04,1.07-9.88,10.78-12.43,13.42-4.87,5.04-8.86,8.2-10.65,8.43-.51.06-.95-.06-1.18-.55-.47-.98.84-3.85,11.88-18.55,5.79-7.7,12.32-16.32,12.91-17.09h6.88c.18-.01.48-.11.53-.59.02-.06,0-.19-.07-.29-.06-.09-.17-.18-.39-.18h-6.11c7.25-9.27,11.5-14.6,13.36-16.75l.16-.2-.25-.02c-.37-.02-.75-.04-1.14-.04-1.98,0-5.6.37-7.69,2.82-3,3.53-10.69,13.2-11.46,14.18h-6.34c-.18.01-.48.11-.53.61,0,.05.01.19.11.3.05.07.16.15.37.15h5.58c-1.33,1.73-2.65,3.44-3.56,4.62-.84,1.1-1.13,1.47-1.24,1.61-.46.65-16.09,18.73-18.8,21.53-5.05,5.22-9.07,8.35-10.75,8.35-.48,0-.77-.22-.86-.63-.18-.79.71-2.71.71-2.71,3.36-7.19,16.91-23.57,19.59-26.78l.16-.19s-.78-.06-1.05-.06c-4.68,0-8.53,3.49-9.79,4.77.48-1.42.55-2.51.23-3.25-.46-1.03-1.57-1.26-2.7-1.36-.36-.04-.71-.06-1.05-.06-7.86,0-16.44,7.46-22.26,13.71,0,0-11.31,12.3-17.68,15.85-2.11,1.17-6.24,2.08-8.02.1-.71-.79-.99-1.94-.83-3.43.23-2.19,1.08-4.7,2.51-7.46,4.7-.61,11.62-2.44,18.01-7.77,2.02-1.68,3.52-3.49,4.44-5.39.58-1.16.68-2.49.28-3.55-.6-1.63-2.4-2.09-3.98-2.09-2.24,0-4.65.89-6.28,1.64-6,2.74-10.73,6.14-16.33,11.75-.11.1-5.13,5.55-8.04,8.56-5.05,5.22-9.07,8.35-10.76,8.35-.47,0-.76-.22-.86-.63-.1-.45,0-1.02.31-1.79.47-1.05,1.37-2.51,2.76-4.44.04-.06,1.61-2.06,3.57-4.58,3.58-4.57,11.67-14.46,12.48-15.52,0,0-.77.07-1.42.17-.65.09-1.47.14-2.35.31-2.7.52-4.09.59-4.84.59-2.54.02-6.12-.85-6.6-2.65-.18-.67.1-1.36-.37-1.7-.38-.28-1.08-.15-1.44.23-.47.49-.44,1.43.21,2.07-5.02,5.58-10.87,11.59-11.12,11.86,0,0-.1.1-.17.23h0c-1.24,1.37-3.81,4.19-6.73,7.21-1.69,1.74-3.5,3.44-5.23,4.88-1.74,1.46-4.13,3.14-5.7,3.82-2.06.89-4.82,1.09-6.11-.35-.69-.78-.95-2.01-.77-3.68.6-5.59,5.44-13.8,12.03-20.42,2.52-2.52,5.5-4.35,7.09-4.35.43,0,.72.13.86.4.24.4.33,1.54-1.56,4.54-.57.89-.7,1.71-.37,2.31.26.47.79.74,1.46.74,2.37,0,5.01-2.92,5.61-5.34.42-1.67-.08-2.98-1.42-3.69-1.88-1-4.62-1.01-8.65.47-10.48,3.87-16.68,14.3-16.95,14.69-2.17,3.12-5.5,9.44-3.94,13.59.63,1.68,1.99,2.78,4.04,3.29,5.76,1.45,10.88-1.58,15.07-5.22,2.02-1.77,3.76-3.41,5.3-5.02.21-.23,6.08-6.48,7.18-7.79.04-.04.07-.09.1-.14h.01c1.91-2.08,3.84-4.15,5.78-6.23,1.63-1.74,3.24-3.46,4.86-5.18.44.39,1.11.91,2.01,1.35.51.25.91.39,1.17.46,1.7.54,3.51.62,4.44.62.01,0,.37,0,.68-.02-1.29,1.3-7.59,8.74-9.9,11.77-.09.11-.14.18-.15.19l-.2.25c-2.29,2.87-8.38,10.51-6.8,13.8.49,1.01,1.65,1.52,3.47,1.52,3.97,0,10.17-5.6,14.68-10.31.26-.27,6.4-6.79,7.49-8.07.03-.03.06-.07.08-.11.02,0,.04-.01.05-.03-.27.36-.56.75-.88,1.22-2.17,3.12-5.42,9.51-3.87,13.66,1.04,2.77,4.18,3.64,6.87,3.64,2.35,0,5.4-.69,7.93-2.13,5.38-3.05,11.02-8,17.19-15.13-3.28,4.54-7.32,10.74-4.46,15.17,1,1.54,2.38,2.33,4.07,2.33,3.74,0,8.22-3.76,10.56-6.01l.44-.43c-.17.54-.39,1.43-.41,2.48-.03,1.16.27,2.06.89,2.69,1.01,1.03,2.56,1.03,3.07,1.03,3.97,0,10.17-5.61,14.68-10.32.24-.24,8.84-9.67,9.54-10.44-1.94,2.59-3.93,5.28-5.76,8.03-.16.26-.35.54-.56.84-1.83,2.72-4.83,7.24-3.85,10.05.73,2.09,3.5,1.84,3.5,1.84,4.43-.28,8.47-4.15,11.72-7.25.89-.85,1.83-1.79,3.03-3.05.27-.27,7.6-8.21,7.62-8.28.2-.22.45-.49.73-.81,1.26-1.39,3.16-3.5,3.89-4.24,2.4-2.44,4.66-4.32,6.88-5.72-1.19,1.5-7.59,10.03-7.59,10.03-1.29,1.8-5.04,7.2-5.22,7.46-2.35,3.54-3.65,6.43-3.65,8.15,0,2.46,1.34,3.71,3.97,3.71,3.97,0,10.17-5.6,14.68-10.31.21-.22,11.63-12.61,12.36-13.35,2.39-2.42,4.63-4.3,6.84-5.7-.11.14-.56.74-.67.88-.94,1.21-5.15,6.77-6.23,8.25-1.36,1.85-2.45,3.38-3.44,4.82-1.61,2.34-2.86,4.34-3.78,6.53-.51,1.22-1.06,2.65-1.06,4.1-.02,1.21.34,2.26,1.06,3.03,1.07,1.16,2.61,1.75,4.56,1.75s3.67-.54,4.87-.99c2.08-.78,4.17-2,6.39-3.75,1.79-1.41,3.12-2.6,4.45-3.97.91-.92,1.76-1.76,2.51-2.5.59-.58,1.11-1.09,1.57-1.55.51,1.32,1.68,1.99,3.48,1.99,1.21,0,2.43-.27,3.64-.81,1.95-.86,3.81-2.21,6.23-4.49.56-.54,1.28-1.29,1.83-1.88-.14.2-.3.41-.46.65-2.16,3.12-5.42,9.51-3.87,13.66,1.05,2.77,4.18,3.64,6.88,3.64,2.34,0,5.39-.69,7.93-2.13,5.67-3.22,11.63-8.56,18.21-16.32.22-.25.22-.55-.01-.79ZM282.6,57.63c2.35-2.39,4.41-3.87,6.29-4.53,1.02-.36,2.13-.3,1.96,1.05-.06.53-.29,1.17-.65,1.86-1.55,3-4.64,6.15-9.2,9.38-1.26.88-4.31,2.52-7.05,3.36,2.11-3.7,5.1-7.54,8.65-11.12ZM142.55,57.63c2.36-2.39,4.41-3.87,6.29-4.53,1.02-.36,2.13-.3,1.97,1.05-.06.53-.29,1.17-.65,1.86-1.55,3-4.65,6.15-9.2,9.38-1.26.88-4.31,2.52-7.05,3.36,2.11-3.7,5.09-7.54,8.64-11.12ZM158.05,83.14c-.93.12-1.51-.25-1.72-1.03-.62-2.22,1.8-7.41,6.29-13.56,6.05-8.26,14.21-15.56,17.83-15.95.11-.02.21-.02.32-.02.63,0,1.02.24,1.19.74.44,1.33-.8,4.24-3.89,9.16-2.43,3.87-4.45,6.74-6.56,9.3-5.25,6.49-10.66,11.05-13.46,11.36Z"/>
    </g>
  </g>
</svg>