<?xml version="1.0" encoding="UTF-8"?>
<svg id="Layer_2" data-name="Layer 2" xmlns="http://www.w3.org/2000/svg" viewBox="0 0 88.92 104.29">
  <g id="Layer_1-2" data-name="Layer 1" fill="currentColor" stroke="currentColor">
    <path stroke-miterlimit="10" stroke-width=".75" d="M39.24,103.92c-3.74,0-7.48-.57-11.14-1.77C5.52,94.76-5.5,66.32,3.53,38.75,12.55,11.18,38.25-5.24,60.82,2.14c22.57,7.39,33.59,35.83,24.57,63.4-7.56,23.1-26.83,38.37-46.16,38.37ZM49.67,1.37C30.77,1.37,11.9,16.38,4.48,39.06c-8.85,27.05,1.88,54.92,23.93,62.14,22.04,7.21,47.18-8.92,56.04-35.97,8.85-27.05-1.88-54.92-23.93-62.14-3.56-1.16-7.2-1.72-10.84-1.72Z"/>
    <path stroke="none" d="M35.97,27.87c11.43,0,16.57,5.76,16.57,11.2,0,18.43-24.66,32.98-24.66,42.93,0,1.17.39,1.79,1.17,1.79,7.86,0,37.02-47.6,49.39-47.6,1.01,0,1.94,0,1.94,1.17,0,.47-.39.78-.78.78s-.78-.31-.78-1.09c0-.47-.08-.54-.39-.54-11.35,0-41.53,47.6-49.39,47.6-1.32,0-2.8-1.32-2.8-3.34,0-14.08,23.41-25.67,23.41-41.69,0-5.37-2.49-10.89-13.69-10.89-15.63,0-26.21,12.99-26.21,22.48,0,3.58,1.48,6.53,4.67,8.24,1.87,1.01,4.28,1.55,7.31,1.55,11.82,0,17.58-8.63,17.58-15.17,0-4.04-2.1-7.23-6.3-7.23-3.03,0-6.53,1.25-8.32,2.96l-.16-.23c1.87-1.79,5.05-3.03,8.55-3.03,4.51,0,6.61,3.27,6.61,7.47,0,7.54-6.84,18.28-18.35,18.28-8.79,0-12.91-5.44-12.91-12.05,0-10.34,9.96-23.57,27.53-23.57h0Z"/>
  </g>
</svg>
